<svg xmlns="http://www.w3.org/2000/svg" xmlns:xlink="http://www.w3.org/1999/xlink" width="191" height="54" viewBox="0 0 191 54"><defs><style>.a{fill:#fff;}.b{fill:#f06321;}.c{fill:#ae282e;}.d{filter:url(#a);}</style><filter id="a" x="0" y="0" width="52" height="54" filterUnits="userSpaceOnUse"><feOffset input="SourceAlpha"/><feGaussianBlur stdDeviation="3" result="b"/><feFlood flood-color="#fff" flood-opacity="0.502"/><feComposite operator="in" in2="b"/><feComposite in="SourceGraphic"/></filter></defs><g transform="translate(9 9)"><path class="a" d="M0,17H6.166L11,0H4.9Z" transform="translate(32 17)"/><path class="a" d="M0,17H6.166L11,0H4.834Z" transform="translate(65 17)"/><path class="a" d="M0,17H6.172L11,0H4.767Z" transform="translate(96 17)"/><path class="a" d="M15.577,5.76h6.264C22.7,1.939,20.062,0,13.92,0,6.8,0,2.009,3.251.351,8.785-1.064,13.918,1.824,17,8.515,17c6.755,0,10.745-1.939,12.406-6.333H14.657A4.848,4.848,0,0,1,9.93,13.575c-3.011,0-4.239-1.711-3.318-4.961.982-3.367,3.318-5.249,6.326-5.249,1.964,0,2.824.8,2.64,2.4" transform="translate(43 17)"/><path class="a" d="M15.588,5.76h6.257C22.7,1.939,20,0,13.868,0,6.814,0,1.97,3.251.376,8.785-1.1,13.918,1.786,17,8.472,17s10.672-1.939,12.388-6.333H14.607a4.794,4.794,0,0,1-4.724,2.908c-3,0-4.231-1.711-3.253-4.961.923-3.367,3.253-5.249,6.257-5.249,1.965,0,2.885.8,2.7,2.4" transform="translate(75 17)"/><g class="d" transform="matrix(1, 0, 0, 1, -9, -9)"><path class="b" d="M32.312,3.11c4.082,5.573.494,16.837-7.914,25.014C15.991,36.361,5.791,38.48,1.647,32.846c-4.017-5.631-.43-16.837,7.975-25.011S28.231-2.463,32.312,3.11Z" transform="translate(9 9)"/></g><path class="c" d="M11.161,3.3A30.417,30.417,0,0,0,8.369,5.5C.982,12.321-2.123,21.688,1.541,26.372c3.785,4.682,12.847,2.948,20.419-3.933a26.379,26.379,0,0,0,7.945-11.968,10.657,10.657,0,0,0-1.551-7.517C25.128-1.207,18.175-.863,11.161,3.3" transform="translate(4 0)"/><path class="a" d="M1.749,33A11.455,11.455,0,0,1,0,32.866H.078c1.409,0,2.708-1.355,3.97-4.142a40.993,40.993,0,0,0,2.235-6.9,26.284,26.284,0,0,0,.664-4.257,3.859,3.859,0,0,0-.241-2.1,1.516,1.516,0,0,0-1.262-.537,5.494,5.494,0,0,0-2.546.838,1.518,1.518,0,0,1-.716.209.5.5,0,0,1-.485-.241c-.132-.279.06-.757.541-1.347,1.284-1.507,6.444-5.274,8.272-5.879a4.937,4.937,0,0,1,1.253-.165,2.617,2.617,0,0,1,2.194.879,1.858,1.858,0,0,1,.119,1.743c-.047.139-.141.4-.272.76-.576,1.589-1.924,5.311-2.9,8.88-1.212,4.441-1.463,7.21-.748,8.23a1,1,0,0,0,.865.444,2.088,2.088,0,0,0,.7-.14C8.283,31.7,4.928,33,1.749,33ZM12.728,6.833a1.653,1.653,0,0,1-1.191-.419,1.691,1.691,0,0,1-.5-1.231,5.385,5.385,0,0,1,1.715-3.509A5.517,5.517,0,0,1,16.242,0a1.7,1.7,0,0,1,1.274.475A1.536,1.536,0,0,1,18,1.615v.18a5.549,5.549,0,0,1-1.751,3.358A5.552,5.552,0,0,1,12.728,6.833Z" transform="translate(7 3)"/><path class="a" d="M9.359,17H0L4.768,0h9.18c2.1,0,3.787.051,4.769.687A2.717,2.717,0,0,1,19.8,4.109c-.539,2.044-2.23,3.366-4.89,3.822A3.983,3.983,0,0,1,17.927,9.42a3.265,3.265,0,0,1,.249,2.787,5.735,5.735,0,0,1-2.538,3.364C13.775,16.766,11.925,17,9.359,17ZM5.979,9.356,4.59,14.26H9.365c2.755,0,4.125-.716,4.583-2.394a1.742,1.742,0,0,0-.11-1.6c-.472-.635-1.613-.907-3.816-.907H5.979ZM9.358,6.734h1.09c3.19,0,4.564-.572,5.07-2.112a1.441,1.441,0,0,0-.15-1.287c-.5-.636-1.82-.766-3.653-.766H7.97L6.764,6.734Z" transform="translate(112 17)"/><path class="a" d="M4.248,13A4.5,4.5,0,0,1,.529,11.636,3.005,3.005,0,0,1,.148,8.944,4.477,4.477,0,0,1,2.412,6.023,11.774,11.774,0,0,1,7.217,4.891V6.977C4.836,7.2,4.166,7.949,3.892,9a1.34,1.34,0,0,0,.118,1.231,2.236,2.236,0,0,0,1.842.62,5.05,5.05,0,0,0,1.365-.178v1.787A7.93,7.93,0,0,1,4.248,13Zm8.614-.3H9.3l.3-1.728a7.716,7.716,0,0,1-2.376,1.49V10.676a4.66,4.66,0,0,0,3.389-3.52l.059-.179H7.217V4.891h.033c.309,0,.626-.014.962-.028.355-.015.721-.031,1.083-.031h1.9l.056-.179a2.189,2.189,0,0,0-.1-1.954A2.286,2.286,0,0,0,9.239,2.03a4.107,4.107,0,0,0-2.022.414A2.072,2.072,0,0,0,6.149,3.7H2.585C3.176,1.971,4.778.776,7.217.241A18.289,18.289,0,0,1,9.952,0C13.136,0,14.882,1.073,15,3.1v.6a4.568,4.568,0,0,1-.178,1.252L13.456,9.957c-.169.68-.306,1.349-.439,2-.053.258-.1.508-.155.748Z" transform="translate(131 21)"/><path class="a" d="M0,13H3.5L5.169,6.469A5.074,5.074,0,0,1,9.876,2.5c2.067,0,2.816,1.284,2.127,3.846L10.336,13h3.5l1.952-7.751C16.6,1.955,15.046,0,11.6,0A7.153,7.153,0,0,0,6.03,2.562l.4-2.257H2.93c-.344,2.013-.574,3.236-.692,3.724Z" transform="translate(147 21)"/><path class="a" d="M0,17H3.778l1.887-6.39,5.1,6.39h5.222L10.2,10.211,18,5.133H13.156L5.917,9.869,8.811,0H5.036Z" transform="translate(164 17)"/></g></svg>